<svg width="64" height="64" viewBox="0 0 64 64" fill="none" xmlns="http://www.w3.org/2000/svg">
<path d="M0 12C0 5.37258 5.37258 0 12 0H52C58.6274 0 64 5.37258 64 12V52C64 58.6274 58.6274 64 52 64H12C5.37258 64 0 58.6274 0 52V12Z" fill="#D4A373"/>
<path d="M20.304 10.544C21.072 10.288 23.1627 10.0107 26.576 9.712C29.9893 9.37066 33.0827 9.2 35.856 9.2C38.672 9.2 40.848 9.328 42.384 9.584C42.4267 9.75466 42.448 9.968 42.448 10.224C42.448 10.4373 42.32 10.9707 42.064 11.824C41.8507 12.6773 41.68 13.232 41.552 13.488C41.2107 13.8293 40.2507 14.0853 38.672 14.256L50.896 49.648L56.976 50.16C56.976 51.3547 56.6133 52.6347 55.888 54H41.168L40.976 51.76C41.9573 51.248 43.3867 50.8 45.264 50.416L42 41.264H24.144L21.136 49.648L26.32 50.16C26.32 51.3547 25.9573 52.6347 25.232 54H10.512L10.32 51.76C11.984 51.1627 13.7547 50.6933 15.632 50.352L28.048 14.064C24.2507 13.6373 21.584 13.1253 20.048 12.528L20.304 10.544ZM36.944 26.992L33.552 14.448C33.296 14.4053 32.9333 14.384 32.464 14.384L29.008 27.44L25.296 37.168H40.848L36.944 26.992Z" fill="#FEFAE0"/>
</svg>
